<svg id="Layer_1" enable-background="new 0 0 512 512" height="512" viewBox="0 0 512 512" width="512" xmlns="http://www.w3.org/2000/svg"><g><g><g><path d="m228.061 512c-4.142 0-7.5-3.358-7.5-7.5v-94.646c0-4.142 3.358-7.5 7.5-7.5s7.5 3.358 7.5 7.5v94.646c0 4.142-3.358 7.5-7.5 7.5z" fill="#d1edf9"/><g><path d="m232.702 428.893h-9.282c-7.096 0-12.115-6.938-9.893-13.675l8.047-24.402h12.975l8.047 24.402c2.221 6.737-2.798 13.675-9.894 13.675z" fill="#f5d400"/><path d="m316.875 266.883c0 60.367-39.763 129.484-88.814 129.484s-88.814-69.117-88.814-129.484 39.763-89.125 88.814-89.125 88.814 28.758 88.814 89.125z" fill="#fff200"/><path d="m228.061 177.758c-6.877 0-13.572.566-20 1.705 39.419 6.982 68.814 35.518 68.814 87.421s-29.395 110.273-68.814 125.621c6.428 2.503 13.123 3.863 20 3.863 49.051 0 88.814-69.117 88.814-129.484 0-60.368-39.764-89.126-88.814-89.126z" fill="#f7eb00"/></g></g><g><path d="m96.147 512c-4.142 0-7.5-3.358-7.5-7.5 0-6.186-2.179-11.775-4.485-17.692-3.957-10.148-8.44-21.65-1.815-36.668 2.412-5.468 5.583-9.9 8.381-13.811 4.335-6.059 7.788-10.885 8.001-18.27-.023-.24-.036-.482-.036-.729 0-7.801-3.536-12.743-8.011-18.999-2.798-3.91-5.969-8.342-8.381-13.811-6.625-15.018-2.142-26.52 1.815-36.668 2.307-5.917 4.485-11.506 4.485-17.692v-45.16c0-4.142 3.358-7.5 7.5-7.5s7.5 3.358 7.5 7.5v45.161c0 9.006-2.927 16.515-5.51 23.14-3.586 9.2-6.178 15.847-2.067 25.166 1.788 4.053 4.25 7.494 6.856 11.137 4.944 6.91 10.532 14.721 10.802 26.811.037.3.056.605.056.916 0 12.615-5.744 20.644-10.813 27.727-2.606 3.643-5.068 7.084-6.856 11.137-4.111 9.319-1.52 15.966 2.067 25.166 2.583 6.625 5.51 14.134 5.51 23.14.001 4.141-3.357 7.499-7.499 7.499zm17.546-94.669h.01z" fill="#d1edf9"/><g><path d="m100.955 298.421h-9.282c-7.096 0-12.115-6.938-9.893-13.675l8.047-24.402h12.975l8.047 24.402c2.221 6.737-2.798 13.675-9.894 13.675z" fill="#00a9ce"/><path d="m185.128 136.412c0 60.367-39.763 129.484-88.814 129.484s-88.814-69.117-88.814-129.484 39.763-89.125 88.814-89.125 88.814 28.758 88.814 89.125z" fill="#25cdec"/><path d="m96.314 47.286c-6.877 0-13.572.566-20 1.705 39.419 6.982 68.814 35.518 68.814 87.421s-29.395 110.273-68.814 125.621c6.428 2.503 13.123 3.863 20 3.863 49.051 0 88.814-69.117 88.814-129.484s-39.763-89.126-88.814-89.126z" fill="#0bc5e8"/></g></g><g><path d="m415.686 512c-4.142 0-7.5-3.358-7.5-7.5v-29.302c0-6.186-2.179-11.775-4.485-17.692-3.956-10.148-8.44-21.65-1.815-36.668 2.412-5.469 5.583-9.901 8.381-13.812 4.476-6.256 8.012-11.197 8.012-18.998 0-7.775-3.625-12.902-8.214-19.393-3.175-4.49-6.773-9.579-9.166-15.943-4.916-13.07-1.499-21.533 1.804-29.716 2.696-6.677 5.483-13.582 5.483-25.451v-56.525c0-4.142 3.358-7.5 7.5-7.5s7.5 3.358 7.5 7.5v56.526c0 14.782-3.645 23.811-6.574 31.066-3.017 7.473-4.531 11.224-1.674 18.821 1.714 4.559 4.463 8.447 7.374 12.563 5.14 7.271 10.966 15.511 10.966 28.053 0 12.615-5.745 20.643-10.813 27.727-2.607 3.643-5.069 7.084-6.857 11.137-4.111 9.319-1.52 15.966 2.067 25.166 2.583 6.625 5.51 14.134 5.51 23.14v29.301c.001 4.142-3.357 7.5-7.499 7.5z" fill="#d1edf9"/><path d="m420.495 256.717h-9.282c-7.096 0-12.115-6.938-9.893-13.675l8.047-24.402h12.975l8.047 24.402c2.221 6.738-2.799 13.675-9.894 13.675z" fill="#ad6bff"/><g><path d="m504.5 96.625c0 60.367-39.763 129.484-88.814 129.484s-88.814-69.117-88.814-129.484 39.764-89.125 88.814-89.125 88.814 28.758 88.814 89.125z" fill="#c89cff"/><path d="m415.686 7.5c-6.877 0-13.572.566-20 1.705 39.419 6.982 68.814 35.518 68.814 87.421s-29.395 110.273-68.814 125.621c6.428 2.503 13.123 3.863 20 3.863 49.051 0 88.814-69.117 88.814-129.484 0-60.368-39.763-89.126-88.814-89.126z" fill="#c18fff"/><g><path d="m275.466 216.463c-7.086-6.497-16.072-11.08-26.708-13.624-4.031-.965-8.075 1.521-9.039 5.55-.963 4.029 1.522 8.075 5.55 9.039 8.127 1.943 14.876 5.338 20.06 10.091 5.12 4.694 8.858 10.969 11.112 18.652.959 3.27 3.95 5.39 7.193 5.39.699 0 1.41-.099 2.115-.305 3.974-1.167 6.251-5.334 5.085-9.309-3.034-10.341-8.204-18.916-15.368-25.484z" fill="#f5d400"/><path d="m143.719 85.991c-7.085-6.496-16.071-11.08-26.708-13.623-4.029-.964-8.075 1.522-9.039 5.55-.963 4.029 1.522 8.075 5.55 9.039 8.127 1.943 14.876 5.338 20.06 10.091 5.119 4.693 8.858 10.969 11.113 18.652.959 3.27 3.95 5.39 7.193 5.39.699 0 1.411-.099 2.115-.306 3.975-1.167 6.251-5.334 5.084-9.308-3.035-10.344-8.206-18.918-15.368-25.485z" fill="#00a9ce"/><path d="m478.461 71.69c-3.035-10.342-8.206-18.917-15.369-25.485-7.086-6.496-16.072-11.08-26.708-13.623-4.031-.962-8.075 1.521-9.039 5.55-.963 4.029 1.522 8.075 5.55 9.039 8.127 1.943 14.876 5.338 20.06 10.09 5.12 4.695 8.859 10.97 11.113 18.653.959 3.27 3.95 5.39 7.193 5.39.699 0 1.41-.099 2.115-.305 3.974-1.167 6.251-5.334 5.085-9.309z" fill="#ad6bff"/></g></g></g></g><g><path d="m135 15c9.652 0 9.668-15 0-15-9.652 0-9.668 15 0 15z" fill="#fdbc00"/></g><g><path d="m296.875 29.5c9.652 0 9.668-15 0-15-9.652 0-9.668 15 0 15z" fill="#fdbc00"/></g><g><path d="m265.326 143.5c9.652 0 9.668-15 0-15-9.652 0-9.668 15 0 15z" fill="#fdbc00"/></g><g><path d="m357 305.921c9.652 0 9.668-15 0-15-9.652 0-9.668 15 0 15z" fill="#fdbc00"/></g><g><path d="m7.245 277.643c9.652 0 9.668-15 0-15-9.652 0-9.668 15 0 15z" fill="#fdbc00"/></g><g><path d="m7.5 512c9.652 0 9.668-15 0-15-9.652 0-9.668 15 0 15z" fill="#fdbc00"/></g><g><path d="m42.5 349.5c9.652 0 9.668-15 0-15-9.652 0-9.668 15 0 15z" fill="#fdbc00"/></g><g><path d="m484.902 422.924c9.652 0 9.668-15 0-15-9.651 0-9.667 15 0 15z" fill="#fdbc00"/></g><g><path d="m465.305 351.5c9.652 0 9.668-15 0-15-9.652 0-9.668 15 0 15z" fill="#fdbc00"/></g><g><path d="m155 484.195c9.652 0 9.668-15 0-15-9.652 0-9.668 15 0 15z" fill="#fdbc00"/></g><g><path d="m32.401 2.197c-2.929-2.929-7.678-2.929-10.606 0l-19.598 19.598c-2.929 2.929-2.929 7.678 0 10.606 1.464 1.464 3.384 2.197 5.303 2.197s3.839-.732 5.303-2.197l19.598-19.598c2.929-2.928 2.929-7.677 0-10.606z" fill="#50d9b2"/><path d="m229.565 45.784c-2.929-2.929-7.678-2.929-10.606 0-2.929 2.929-2.929 7.678 0 10.606l19.598 19.598c1.464 1.464 3.384 2.197 5.303 2.197s3.839-.732 5.303-2.197c2.929-2.929 2.929-7.678 0-10.606z" fill="#ff6381"/><g fill="#50d9b2"><path d="m342.539 387.014-19.598 19.598c-2.929 2.929-2.929 7.678 0 10.606 1.464 1.464 3.384 2.197 5.303 2.197s3.839-.732 5.303-2.197l19.598-19.598c2.929-2.929 2.929-7.678 0-10.606-2.929-2.929-7.678-2.929-10.606 0z"/><path d="m32.401 410.121c-2.929-2.929-7.678-2.929-10.606 0-2.929 2.929-2.929 7.678 0 10.606l19.598 19.598c1.464 1.464 3.384 2.197 5.303 2.197s3.839-.732 5.303-2.197c2.929-2.929 2.929-7.678 0-10.606z"/><path d="m470.608 479.599c-2.929-2.929-7.678-2.929-10.606 0-2.929 2.929-2.929 7.678 0 10.606l19.598 19.598c1.464 1.464 3.384 2.197 5.303 2.197s3.839-.732 5.303-2.197c2.929-2.929 2.929-7.678 0-10.606z"/></g><path d="m509.803 247.813c-2.929-2.929-7.678-2.929-10.606 0l-19.598 19.598c-2.929 2.929-2.929 7.678 0 10.606 1.464 1.464 3.384 2.197 5.303 2.197s3.839-.732 5.303-2.197l19.598-19.598c2.93-2.928 2.93-7.677 0-10.606z" fill="#ff6381"/><path d="m292.379 479.599c-2.929-2.929-7.678-2.929-10.606 0-2.929 2.929-2.929 7.678 0 10.606l19.598 19.598c1.464 1.464 3.384 2.197 5.303 2.197s3.839-.732 5.303-2.197c2.929-2.929 2.929-7.678 0-10.606z" fill="#ff6381"/></g></g></svg>