<svg id="Layer_3" height="512" viewBox="0 0 64 64" width="512" xmlns="http://www.w3.org/2000/svg" data-name="Layer 3"><path d="m8 58v-14a4 4 0 0 1 4-4h40a4 4 0 0 1 4 4v14z" fill="#e3e8f6"/><path d="m52 40h-40a3.977 3.977 0 0 0 -1 .141v6.913a5.946 5.946 0 0 0 5.946 5.946h39.054v-9a4 4 0 0 0 -4-4z" fill="#f8f7fe"/><path d="m12 40v-12a4 4 0 0 1 4-4h32a4 4 0 0 1 4 4v12z" fill="#e3e8f6"/><path d="m48 24h-32a3.955 3.955 0 0 0 -2 .555v6.266a7.179 7.179 0 0 0 7.179 7.179h30.821v-10a4 4 0 0 0 -4-4z" fill="#f8f7fe"/><path d="m30 12h4v12h-4z" fill="#f6b940"/><path d="m40 15h4v9h-4z" fill="#f6b940"/><path d="m20 15h4v9h-4z" fill="#f6b940"/><path d="m32 2-1.6 2.4a2.429 2.429 0 0 0 .491 3.222 1.816 1.816 0 0 0 2.218 0 2.429 2.429 0 0 0 .491-3.222z" fill="#f9d266"/><path d="m31 7.68v4.32h2v-4.32a1.794 1.794 0 0 1 -2 0z" fill="#e3e8f6"/><path d="m42 5-1.6 2.4a2.429 2.429 0 0 0 .491 3.222 1.816 1.816 0 0 0 2.218 0 2.429 2.429 0 0 0 .491-3.222z" fill="#f9d266"/><path d="m41.092 10.729v4.271h2v-4.369a1.8 1.8 0 0 1 -2 .098z" fill="#e3e8f6"/><path d="m22 5-1.6 2.4a2.429 2.429 0 0 0 .491 3.222 1.816 1.816 0 0 0 2.218 0 2.429 2.429 0 0 0 .491-3.222z" fill="#f9d266"/><path d="m21 10.68v4.32h2v-4.32a1.794 1.794 0 0 1 -2 0z" fill="#e3e8f6"/><g fill="#f9d266"><path d="m46.586 3h2.828v2h-2.828z" transform="matrix(.707 -.707 .707 .707 11.23 35.113)"/><path d="m47 10.586h2v2.828h-2z" transform="matrix(.707 -.707 .707 .707 5.574 37.456)"/><path d="m48 7h3v2h-3z"/><path d="m15 2.586h2v2.828h-2z" transform="matrix(.707 -.707 .707 .707 1.858 12.485)"/><path d="m14.586 11h2.828v2h-2.828z" transform="matrix(.707 -.707 .707 .707 -3.799 14.828)"/><path d="m13 7h3v2h-3z"/><path d="m21 22a1 1 0 0 0 1 1h2v-8h-3z"/><path d="m31 22a1 1 0 0 0 1 1h2v-11h-3z"/><path d="m41 22a1 1 0 0 0 1 1h2v-8h-3z"/></g><path d="m59 62h-54v-2a4 4 0 0 1 4-4h46a4 4 0 0 1 4 4z" fill="#e1656e"/><path d="m52 40h-40a4 4 0 0 0 -4 4 4.828 4.828 0 0 1 3.414 1.414l1.172 1.172a4.828 4.828 0 0 0 6.828 0l1.172-1.172a4.828 4.828 0 0 1 6.828 0l1.172 1.172a4.828 4.828 0 0 0 6.828 0l1.172-1.172a4.828 4.828 0 0 1 6.828 0l1.172 1.172a4.828 4.828 0 0 0 6.828 0l1.172-1.172a4.828 4.828 0 0 1 3.414-1.414 4 4 0 0 0 -4-4z" fill="#e1656e"/><path d="m52 40h-40a3.984 3.984 0 0 0 -3.474 2.052 4.811 4.811 0 0 1 2.888 1.362l1.172 1.172a4.828 4.828 0 0 0 6.828 0l1.172-1.172a4.828 4.828 0 0 1 6.828 0l1.172 1.172a4.828 4.828 0 0 0 6.828 0l1.172-1.172a4.828 4.828 0 0 1 6.828 0l1.172 1.172a4.828 4.828 0 0 0 6.828 0l1.172-1.172a4.811 4.811 0 0 1 2.888-1.362 3.984 3.984 0 0 0 -3.474-2.052z" fill="#f29b99"/><path d="m48 24h-32a4 4 0 0 0 -4 4v2l.586.586a4.828 4.828 0 0 0 6.828 0l1.172-1.172a4.828 4.828 0 0 1 6.828 0l1.172 1.172a4.828 4.828 0 0 0 6.828 0l1.172-1.172a4.828 4.828 0 0 1 6.828 0l1.172 1.172a4.828 4.828 0 0 0 6.828 0l.586-.586v-2a4 4 0 0 0 -4-4z" fill="#e1656e"/><path d="m48 24h-32a4 4 0 0 0 -4 4l.586.586a4.828 4.828 0 0 0 6.828 0l1.172-1.172a4.828 4.828 0 0 1 6.828 0l1.172 1.172a4.828 4.828 0 0 0 6.828 0l1.172-1.172a4.828 4.828 0 0 1 6.828 0l1.172 1.172a4.828 4.828 0 0 0 6.828 0l.586-.586a4 4 0 0 0 -4-4z" fill="#f29b99"/><path d="m15 43h2v2h-2z" fill="#f7c3c2"/><path d="m31 43h2v2h-2z" fill="#f7c3c2"/><path d="m47 43h2v2h-2z" fill="#f7c3c2"/><path d="m15 27h2v2h-2z" fill="#f7c3c2"/><path d="m31 27h2v2h-2z" fill="#f7c3c2"/><path d="m47 27h2v2h-2z" fill="#f7c3c2"/><path d="m55 56h-46a3.977 3.977 0 0 0 -1 .141v.252a3.607 3.607 0 0 0 3.607 3.607h47.393a4 4 0 0 0 -4-4z" fill="#f29b99"/></svg>