<svg id="Flat" height="512" viewBox="0 0 64 64" width="512" xmlns="http://www.w3.org/2000/svg"><path d="m34.4081 20.2148-4.4081-9.9761-10.821 24.49-.179 7.2713-6.441 7.71-1.559 3.5287c0 1.7341 2.3433 3.5653 6.0678 4.9217l8.9322-.1604 5.1675 2.2133c9.9468-.261 17.8325-3.7853 17.8325-6.9746l-2.3528-5.3248-3.6472-2.9139-.2572-5.9224-4.31-9.7551-3.4328-3.3225z" fill="#f077a5"/><path d="m49 53.2387-2.3528-5.3248-3.6472-2.9139-.2572-5.9223-3.9186-8.8683-.3918-.8869-3.4324-3.3225-.5919-5.7851-4.4081-9.9762 13.4745 47.7128c3.4083-1.3305 5.5255-3.0646 5.5255-4.7128z" fill="#cf508c"/><path d="m17.024 58.1429.0484.0174 5.7253-.1028 7.2023-47.8188-13.4727 47.7064c.1673.0655.3234.1349.4967.1978z" fill="#f594be"/><path d="m53 10.2282a8.5491 8.5491 0 0 1 -5.8388-2.4219 9.8971 9.8971 0 0 0 -2.5323-1.6494c-4.23-1.6924-7.4775 2.7177-7.51 2.7636a1 1 0 0 1 -1.6211-1.1718c1.4346-1.9844 5.3447-5.2608 9.873-3.4493a11.65 11.65 0 0 1 3.0469 1.95 6.6189 6.6189 0 0 0 4.5823 1.9788 1 1 0 0 1 0 2z" fill="#f077a5"/><path d="m42.7428 39.0776a131.7068 131.7068 0 0 1 -25.675 19.0824 38.7941 38.7941 0 0 0 12.9322 2.0787c.3942 0 .7794-.0152 1.1675-.0254a130.375 130.375 0 0 0 15.48-12.2994z" fill="#f5ebc8"/><path d="m38.4324 29.3226-4.0243-9.1078c-.7171.9347-1.4643 1.8635-2.2555 2.781a74.5619 74.5619 0 0 1 -12.9736 11.7325l-6.62 14.9817a81.0325 81.0325 0 0 0 25.8734-20.3874z" fill="#9bf0f9"/><path d="m41.8324 52.137c1.6544-1.3863 3.2753-2.7894 4.8148-4.2231l-3.9044-8.8363c-1.1755 1.13-2.4031 2.2429-3.6531 3.3474z" fill="#ebe1b3"/><path d="m36.1369 31.9692c.7949-.8731 1.5641-1.755 2.2955-2.6466l-4.0243-9.1078q-.5713.7447-1.172 1.4831z" fill="#6ed9e6"/><path d="m24.1851 30.829-4.1271 14.6139q2.6661-1.7079 5.182-3.6007l2.08-13.8122q-1.5213 1.4359-3.1349 2.799z" fill="#bffffb"/><path d="m53.0006 20.2282a.9784.9784 0 0 1 -.1973-.02c-4.4794-.8955-5.5742-3.5468-6.7334-6.3535-.2929-.709-.5957-1.4414-.9648-2.18-1.3721-2.7431-6.7129-2.63-8.6553-2.3506a1 1 0 0 1 -.2841-1.98c.3437-.0469 8.4326-1.1563 10.7285 3.4365.4013.8027.7177 1.5693 1.0244 2.31 1.1113 2.6914 1.8457 4.47 5.2773 5.1563a1 1 0 0 1 -.1953 1.9805z" fill="#9bf0f9"/><path d="m43 25.2282a.9969.9969 0 0 1 -.707-.293c-1.8262-1.8252-1.7012-3.85-1.58-5.8067a11.64 11.64 0 0 0 -.6416-5.5292c-1.665-4.1631-3.7334-4.2647-3.7539-4.2647a1.0151 1.0151 0 0 1 -.9912-.9932.985.985 0 0 1 .9434-1.0058c.3291-.0205 3.458.0195 5.6591 5.5215a13.66 13.66 0 0 1 .78 6.3945c-.1142 1.8555-.19 3.081.9981 4.27a1 1 0 0 1 -.7069 1.7066z" fill="#f077a5"/><path d="m17.0678 58.16a33.0977 33.0977 0 0 0 5.4984 1.4338l.7938-5.2668c-2.0647 1.3339-4.1622 2.6204-6.2922 3.833z" fill="#faf5e6"/><path d="m37.26 8.0352a1.0009 1.0009 0 0 0 -.8077-.68l-3.8388-.5576-1.717-3.4783a1.04 1.04 0 0 0 -1.793 0l-1.7168 3.4786-3.8388.5576a.9993.9993 0 0 0 -.5547 1.705l2.7783 2.7081-.6563 3.8242a1 1 0 0 0 1.45 1.0537l3.4348-1.8047 3.4346 1.8047a1 1 0 0 0 1.45-1.0537l-.6563-3.8242 2.7783-2.7081a1.0011 1.0011 0 0 0 .2534-1.0253z" fill="#ffdb58"/></svg>